Coordinates
version=1
nRows=12
nColumns=38
inDegrees=yes

Units are S.I. units (second, meters, Newtons, ...)
If the header above contains a line with 'inDegrees', this indicates whether rotational values are in degrees (yes) or radians (no).

endheader
time	pelvis_tilt	pelvis_list	pelvis_rotation	pelvis_tx	pelvis_ty	pelvis_tz	hip_flexion_r	hip_adduction_r	hip_rotation_r	knee_angle_r	knee_angle_r_beta	ankle_angle_r	subtalar_angle_r	mtp_angle_r	hip_flexion_l	hip_adduction_l	hip_rotation_l	knee_angle_l	knee_angle_l_beta	ankle_angle_l	subtalar_angle_l	mtp_angle_l	lumbar_extension	lumbar_bending	lumbar_rotation	arm_flex_r	arm_add_r	arm_rot_r	elbow_flex_r	pro_sup_r	radius_hand_r_lock	arm_flex_l	arm_add_l	arm_rot_l	elbow_flex_l	pro_sup_l	radius_hand_l_lock
      7.99166667	    -89.77759321	      4.29785218	   -180.02946437	      0.97238391	      0.54318861	     -0.59729606	     11.68421339	     -4.17254430	    -12.27308148	     32.21807902	      0.56231156	      2.84683957	     -0.22162852	     -7.49999987	      9.84515709	    -15.01037282	    -16.94282630	     35.77851969	      0.62445297	     14.32777328	     10.44091275	     -7.49999987	     -8.09510204	      5.16827218	      4.83910220	     39.04909336	     -8.67124136	     -3.07884573	     52.60105109	    102.35830224	      0.00000000	     33.98978840	     -9.24949239	      2.42493585	     58.70736573	    108.64167107	      0.00000000
      8.00000000	    -89.77770938	      4.30261613	   -180.04317289	      0.97197559	      0.54296832	     -0.59731574	     11.66066889	     -4.19046568	    -12.41824048	     32.19195063	      0.56185553	      2.88584164	     -0.24576108	     -7.49999987	      9.86098313	    -14.98980845	    -16.81518638	     35.78787281	      0.62461621	     14.47734496	     10.47274404	     -7.49999987	     -8.05971360	      5.16472162	      4.79757694	     38.90318893	     -8.66064849	     -3.04124262	     52.51747971	    102.56801373	      0.00000000	     33.92304991	     -9.27684399	      2.59102557	     58.53290726	    108.49681987	      0.00000000
      8.00833333	    -89.77819708	      4.51020219	   -180.06082665	      0.97135383	      0.54271892	     -0.59741583	     11.58395385	     -3.88179283	    -12.37874272	     32.06185079	      0.55958486	      3.02230728	     -0.36259569	     -7.49999987	      9.90082199	    -15.24679471	    -16.78076902	     35.87858769	      0.62619949	     14.74681604	     10.66912131	     -7.49999987	     -8.02160228	      5.41040130	      4.77049505	     38.75781964	     -8.67485000	     -2.84064294	     52.49496025	    102.18597298	      0.00000000	     33.77534085	     -9.26289636	      2.62172273	     58.39155646	    108.50838565	      0.00000000
      8.01666667	    -89.77819599	      4.63349663	   -180.06836513	      0.97064587	      0.54248117	     -0.59729944	     11.47573048	     -3.67330076	    -12.21971860	     31.90615380	      0.55686744	      3.27191280	     -0.51495537	     -7.49999987	      9.92281423	    -15.30120643	    -16.55921014	     35.90213466	      0.62661046	     15.01497567	     10.51328053	     -7.49999987	     -7.97410117	      5.60327486	      4.73433604	     38.55336223	     -8.62264341	     -2.58433843	     52.48594904	    102.14020704	      0.00000000	     33.54343599	     -9.21401424	      2.69757511	     58.31532928	    108.78961899	      0.00000000
      8.02500000	    -89.77970548	      4.38773656	   -180.31215189	      0.96992422	      0.54211751	     -0.59737085	     11.52465821	     -3.94968790	    -11.84945804	     31.99182917	      0.55836275	      3.60260526	     -0.29048417	     -7.49999987	      9.76157053	    -14.93134692	    -16.65461930	     35.75714984	      0.62408000	     15.21043955	     10.32930920	     -7.49999987	     -7.97152540	      5.35598727	      4.92757726	     38.36613606	     -8.62339090	     -2.68748588	     52.36913730	    102.83182307	      0.00000000	     33.40750204	     -9.15700057	      2.89764303	     58.11704129	    109.02789352	      0.00000000
      8.03333333	    -89.78207916	      4.53824733	   -180.35563833	      0.96917204	      0.54193186	     -0.59723138	     11.43795354	     -3.77669425	    -11.83809860	     31.87631761	      0.55634670	      3.87773296	     -0.23169730	     -7.49999987	      9.70317745	    -15.04344458	    -16.53682376	     35.73523230	      0.62369746	     15.61620943	     10.36738097	     -7.49999987	     -7.93786709	      5.59399769	      4.89307082	     38.21584485	     -8.60450888	     -2.60720227	     52.16010695	    103.20832335	      0.00000000	     33.16132363	     -9.13373029	      3.05227376	     57.85055660	    108.47594271	      0.00000000
      8.04166667	    -89.78225420	      5.24013136	   -180.44223342	      0.96819965	      0.54180384	     -0.59776268	     11.18684294	     -2.78974629	    -11.76218323	     31.43295779	      0.54860861	      3.98187604	     -0.55276338	     -7.49999987	      9.73276624	    -16.03753878	    -16.80419668	     35.97243140	      0.62783737	     16.09326970	     10.89030930	     -7.49999987	     -7.92553714	      6.42792592	      4.94714394	     38.14788194	     -8.80640068	     -2.21816283	     51.89520218	    102.52757937	      0.00000000	     32.84192355	     -9.04456336	      2.95225464	     57.61334218	    108.36269427	      0.00000000
      8.05000000	    -89.78423926	      5.39101725	   -180.52832037	      0.96711804	      0.54160299	     -0.59792118	     11.08174424	     -2.56853608	    -11.90467242	     31.30042609	      0.54629549	      4.29488254	     -0.50469133	     -7.49999987	      9.64122718	    -16.21727780	    -16.90490234	     35.94313607	      0.62732607	     16.50182749	     11.05710922	     -7.49999987	     -7.90014767	      6.60763303	      4.98156961	     37.96565507	     -8.89626085	     -1.97301140	     51.65188941	    102.94047494	      0.00000000	     32.65169990	     -8.99260846	      3.05252347	     57.28858846	    108.10392214	      0.00000000
      8.05833333	    -89.78555995	      5.24953989	   -180.64590684	      0.96597291	      0.54132951	     -0.59787330	     11.06344406	     -2.74379702	    -11.89904826	     31.33518674	      0.54690218	      4.77817819	     -0.23287187	     -7.49999987	      9.48589440	    -16.01718438	    -17.07412109	     35.82086799	      0.62519209	     16.86311884	     10.98114043	     -7.49999987	     -7.87942167	      6.46164934	      5.02838800	     37.69240256	     -8.94843703	     -1.85045861	     51.40034981	    102.29574872	      0.00000000	     32.42162022	     -8.99433016	      3.10199673	     57.05691338	    108.77592226	      0.00000000
      8.06666667	    -89.78659187	      5.59643778	   -180.64876770	      0.96475781	      0.54086103	     -0.59804864	     10.88885370	     -2.21678861	    -11.69346344	     31.06516028	      0.54218933	      5.10970879	     -0.54380152	     -7.49999987	      9.49892394	    -16.50176025	    -17.18978743	     35.93540710	      0.62719117	     17.24596437	     11.04225276	     -7.49999987	     -7.87158748	      6.87447658	      5.01456005	     37.44276572	     -8.82083289	     -1.86399260	     51.06904941	    102.90867499	      0.00000000	     32.19051208	     -8.98027217	      3.22955492	     56.70948771	    108.65248463	      0.00000000
      8.07500000	    -89.78816965	      5.75927565	   -180.82506239	      0.96354435	      0.54033368	     -0.59847882	     10.84395456	     -1.91328311	    -11.40673598	     31.00323044	      0.54110845	      5.47400281	     -0.75487148	     -7.49999987	      9.40093944	    -16.75626422	    -17.42049674	     35.95070187	      0.62745812	     17.64952467	     11.27526464	     -7.49999987	     -7.91100218	      7.06955575	      5.08997135	     37.24730454	     -8.81388121	     -1.43448991	     50.62474761	    101.78749703	      0.00000000	     31.91489575	     -8.98107979	      3.27523645	     56.30893599	    108.69682345	      0.00000000
      8.08333333	    -89.79105039	      5.61880592	   -180.84274627	      0.96232934	      0.53978986	     -0.59828304	     10.81144518	     -2.09575558	    -11.41025357	     31.02641938	      0.54151317	      6.01739705	     -0.47692844	     -7.49999987	      9.31232922	    -16.44594308	    -17.26707283	     35.78797035	      0.62461792	     17.97718540	     11.10038243	     -7.49999987	     -7.94772012	      6.94549082	      4.98526437	     37.08796684	     -8.86315950	     -1.06630625	     50.16767469	    101.10747109	      0.00000000	     31.66397647	     -8.97434757	      3.34301992	     55.91816155	    108.23247865	      0.00000000
